<svg xmlns="http://www.w3.org/2000/svg" width="464" height="690"><path data-name="outline mockup копия" d="M430.652 110.884v708.543h-398.9V110.884h398.9m1.063-1.063H30.689v710.668h401.026V109.821h0zM231.55 899.4a33.236 33.236 0 1133.281-33.236A33.3 33.3 0 01231.55 899.4zm0-65.41a32.174 32.174 0 1032.218 32.174 32.232 32.232 0 00-32.218-32.175zM405.733 923H57.38c-28.208 0-51.157-22.331-51.157-49.781V51.942a48.966 48.966 0 0115.086-35.286A51.43 51.43 0 0157.38 2h348.353c27.817 0 50.448 22.4 50.448 49.942v821.276a49.159 49.159 0 01-14.729 35.2A50.46 50.46 0 01405.733 923zM57.38 3.062a50.369 50.369 0 00-35.328 14.355A47.913 47.913 0 007.287 51.942v821.276c0 26.864 22.472 48.72 50.093 48.72h348.353a49.4 49.4 0 0034.967-14.272 48.1 48.1 0 0014.414-34.448V51.942c0-26.953-22.154-48.88-49.385-48.88H57.38zm204.67 60.55h-62.228a3.187 3.187 0 110-6.374h62.228a3.187 3.187 0 110 6.374zM199.822 58.3a2.125 2.125 0 100 4.249h62.228a2.125 2.125 0 100-4.249h-62.228zm31.585-17.765a7.275 7.275 0 117.284-7.275 7.287 7.287 0 01-7.284 7.275zm0-13.487a6.212 6.212 0 106.22 6.212 6.224 6.224 0 00-6.22-6.211zm-71.8 42.034a7.949 7.949 0 117.959-7.948 7.963 7.963 0 01-7.959 7.949zm0-14.834a6.886 6.886 0 106.9 6.886 6.9 6.9 0 00-6.9-6.886zM459.883 267.57h-4.765v-65.861h4.765a1.651 1.651 0 011.617 1.88v62.1a1.651 1.651 0 01-1.617 1.881zm-3.7-1.062h3.7a.662.662 0 00.553-.817v-62.1a.663.663 0 00-.553-.818h-3.7v63.737zM406.218 916.1H56.772c-24.06 0-43.634-19.356-43.634-43.147V52.052C13.137 28.26 32.711 8.9 56.772 8.9h349.446a43 43 0 0143.049 43.148v820.9a43 43 0 01-43.049 43.152zM56.772 9.967C33.3 9.967 14.2 28.846 14.2 52.052v820.9c0 23.206 19.1 42.085 42.571 42.085h349.447a41.932 41.932 0 0041.982-42.089V52.052a41.932 41.932 0 00-41.982-42.085H56.772zM7.287 150.188H5.712a2.115 2.115 0 01-2.148-1.88V120.2a2.116 2.116 0 012.148-1.88h1.575v31.869zm-1.575-30.806a1.1 1.1 0 00-1.085.817v28.109a1.1 1.1 0 001.085.818h.511v-29.744h-.511zM7.287 267.57H4.648a2.115 2.115 0 01-2.148-1.879v-62.1a2.115 2.115 0 012.148-1.88h2.639v65.859zm-2.638-64.8a1.1 1.1 0 00-1.085.818v62.1a1.1 1.1 0 001.085.817h1.574v-63.734H4.648zm2.638 149.783H4.648a2.115 2.115 0 01-2.148-1.88v-62.1a2.115 2.115 0 012.148-1.88h2.639v65.861zm-2.638-64.8a1.1 1.1 0 00-1.085.818v62.1a1.1 1.1 0 001.085.818h1.574v-63.735H4.648z" fill="#fff" stroke="#fff" stroke-linejoin="round" fill-rule="evenodd"/></svg>