<svg xmlns="http://www.w3.org/2000/svg"
 xmlns:xlink="http://www.w3.org/1999/xlink"
 width="48px" height="43px"  viewBox="0 0 48 43">
<path fill-rule="evenodd"  fill="transparent"
 d="M44.187317,26.82666 C44.187317,26.82666 31.200317,26.91504 23.32611,27.728027 C19.639404,28.108887 16.171265,29.115479 15.058777,29.458984 C15.058777,29.458984 15.499878,32.343994 15.499878,32.343994 C15.499878,32.343994 42.781128,32.343994 42.781128,32.343994 C43.5578,32.343994 44.187317,32.96167 44.187317,33.723633 C44.187317,34.48535 43.5578,35.103027 42.781128,35.103027 C42.781128,35.103027 15.535034,35.103027 15.535034,35.103027 C13.981689,35.103027 12.722534,33.867188 12.722534,32.343994 C12.722534,32.343994 12.371033,30.274902 12.371033,30.274902 C12.371033,30.274902 11.954773,27.552734 11.954773,27.552734 C11.889648,27.320312 11.843628,27.079834 11.843628,26.82666 C11.843628,26.82666 9.031067,7.5161133 9.031067,7.5161133 C9.031067,7.5161133 8.562439,4.7578125 8.562439,4.7578125 C8.562439,4.7578125 3.406128,4.7578125 3.406128,4.7578125 C2.6295166,4.7578125 1.999939,4.1401367 1.999939,3.378662 C1.999939,2.6169434 2.6295166,1.9987793 3.406128,1.9987793 C3.406128,1.9987793 9.031067,1.9987793 9.031067,1.9987793 C9.155823,1.9987793 9.267578,2.03833 9.38269,2.0686035 C9.497803,2.03833 9.609558,1.9987793 9.734253,1.9987793 C10.510986,1.9987793 11.140503,2.6169434 11.140503,3.378662 C11.140503,3.378662 11.382629,4.803711 11.382629,4.803711 C11.533447,4.7790527 11.68573,4.7578125 11.843628,4.7578125 C11.843628,4.7578125 44.187317,4.7578125 44.187317,4.7578125 C45.74066,4.7578125 46.999878,5.993408 46.999878,7.5161133 C46.999878,7.5161133 46.999878,24.06836 46.999878,24.06836 C46.999878,25.592041 45.74066,26.82666 44.187317,26.82666 ZM44.187317,8.895996 C44.187317,8.134277 43.5578,7.5161133 42.781128,7.5161133 C42.781128,7.5161133 13.60144,7.5161133 13.60144,7.5161133 C12.82489,7.5161133 12.19519,8.134277 12.19519,8.895996 C12.19519,8.895996 14.539001,24.987793 14.539001,24.987793 C14.539001,25.749756 15.168579,26.3667 15.94519,26.3667 C15.94519,26.3667 18.221619,25.407715 22.396912,24.92627 C29.406982,24.117188 42.781128,24.06836 42.781128,24.06836 C43.5578,24.06836 44.187317,23.45044 44.187317,22.688232 C44.187317,22.688232 44.187317,8.895996 44.187317,8.895996 ZM18.874878,36.481934 C20.428223,36.481934 21.687378,37.716797 21.687378,39.240967 C21.687378,40.76416 20.428223,42.0 18.874878,42.0 C17.321655,42.0 16.062439,40.76416 16.062439,39.240967 C16.062439,37.716797 17.321655,36.481934 18.874878,36.481934 ZM18.874878,40.619873 C19.651611,40.619873 20.281189,40.00244 20.281189,39.240967 C20.281189,38.479004 19.651611,37.861572 18.874878,37.861572 C18.098267,37.861572 17.468689,38.479004 17.468689,39.240967 C17.468689,40.00244 18.098267,40.619873 18.874878,40.619873 ZM38.562378,36.481934 C40.115723,36.481934 41.374878,37.716797 41.374878,39.240967 C41.374878,40.76416 40.115723,42.0 38.562378,42.0 C37.009094,42.0 35.749878,40.76416 35.749878,39.240967 C35.749878,37.716797 37.009094,36.481934 38.562378,36.481934 ZM38.562378,40.619873 C39.33911,40.619873 39.968628,40.00244 39.968628,39.240967 C39.968628,38.479004 39.33911,37.861572 38.562378,37.861572 C37.785767,37.861572 37.15619,38.479004 37.15619,39.240967 C37.15619,40.00244 37.785767,40.619873 38.562378,40.619873 Z"/>
</svg>