<svg xmlns="http://www.w3.org/2000/svg"
 xmlns:xlink="http://www.w3.org/1999/xlink"
 width="49px" height="36px"  viewBox="0 0 49 36">
<path fill-rule="evenodd"  fill="transparent"
 d="M43.687378,34.999268 C41.20642,34.999268 38.116943,30.67456 38.116943,30.338623 C38.116943,30.197266 37.29956,28.954102 36.329346,27.2146 C35.265747,28.308838 33.80359,28.986572 32.187378,28.986572 C29.987305,28.986572 28.092041,27.71875 27.082275,25.863525 C27.082275,25.863525 22.91455,25.863525 22.91455,25.863525 C21.905151,27.717285 20.010925,28.983887 17.812439,28.983887 C16.196716,28.983887 14.734741,28.305908 13.67157,27.211914 C12.700989,28.953125 11.88269,30.197266 11.88269,30.338623 C11.88269,30.67456 8.793335,34.999268 6.312317,34.999268 C3.831482,34.999268 1.999939,32.912598 1.999939,30.338623 C1.999939,27.91333 4.2628174,8.888428 6.599121,6.6882324 C7.0613403,5.682617 8.041992,4.982666 9.187378,4.982666 C9.187378,4.982666 9.196472,4.982666 9.196472,4.982666 C9.195374,4.9501953 9.187378,4.9208984 9.187378,4.888916 C9.187378,3.2927246 10.434326,1.9992676 11.972595,1.9992676 C11.972595,1.9992676 17.902222,1.9992676 17.902222,1.9992676 C19.44043,1.9992676 20.687378,3.2927246 20.687378,4.888916 C20.687378,4.9208984 20.67926,4.9501953 20.678284,4.982666 C20.678284,4.982666 29.321411,4.982666 29.321411,4.982666 C29.320435,4.9501953 29.312378,4.9208984 29.312378,4.888916 C29.312378,3.2927246 30.559326,1.9992676 32.097534,1.9992676 C32.097534,1.9992676 38.02722,1.9992676 38.02722,1.9992676 C39.565308,1.9992676 40.812378,3.2927246 40.812378,4.888916 C40.812378,4.9208984 40.80432,4.9501953 40.803345,4.982666 C40.803345,4.982666 40.812378,4.982666 40.812378,4.982666 C41.95764,4.982666 42.938354,5.682617 43.400635,6.6882324 C45.736816,8.888428 47.999878,27.91333 47.999878,30.338623 C47.999878,32.912598 46.168457,34.999268 43.687378,34.999268 ZM32.187378,25.863525 C33.775146,25.863525 35.062378,24.527832 35.062378,22.880615 C35.062378,21.233398 33.775146,19.89746 32.187378,19.89746 C30.59961,19.89746 29.312378,21.233398 29.312378,22.880615 C29.312378,24.527832 30.59961,25.863525 32.187378,25.863525 ZM17.812439,25.863525 C19.400208,25.863525 20.687378,24.527832 20.687378,22.880615 C20.687378,21.233398 19.400208,19.89746 17.812439,19.89746 C16.224548,19.89746 14.937378,21.233398 14.937378,22.880615 C14.937378,24.527832 16.224548,25.863525 17.812439,25.863525 ZM45.175293,27.782227 C45.091675,26.110352 42.070312,8.445801 40.769165,8.516357 C40.713135,8.519043 40.63623,8.571533 40.55005,8.646484 C40.29236,8.245605 39.874023,7.965088 39.374756,7.965088 C39.374756,7.965088 37.937378,7.965088 37.937378,7.965088 C37.937378,7.965088 37.937378,6.473877 37.937378,6.473877 C37.937378,5.6501465 37.2937,4.982666 36.499878,4.982666 C36.499878,4.982666 33.624878,4.982666 33.624878,4.982666 C32.830933,4.982666 32.187378,5.6501465 32.187378,6.473877 C32.187378,6.473877 32.187378,7.965088 32.187378,7.965088 C32.187378,7.965088 17.812439,7.965088 17.812439,7.965088 C17.812439,7.965088 17.812439,6.473877 17.812439,6.473877 C17.812439,5.6501465 17.168762,4.982666 16.374878,4.982666 C16.374878,4.982666 13.499878,4.982666 13.499878,4.982666 C12.705994,4.982666 12.062439,5.6501465 12.062439,6.473877 C12.062439,6.473877 12.062439,7.965088 12.062439,7.965088 C12.062439,7.965088 10.624878,7.965088 10.624878,7.965088 C10.125732,7.965088 9.707336,8.245605 9.449768,8.646484 C9.363525,8.571533 9.28656,8.519043 9.230591,8.516357 C7.9295044,8.445801 4.908142,26.110352 4.824585,27.782227 C4.740967,29.453613 5.0092163,31.612305 6.310364,31.68164 C7.61145,31.751465 9.911133,28.284912 9.921997,28.065918 C9.931702,27.872559 12.551575,24.398438 13.470886,21.389404 C13.474548,21.389404 13.479309,21.389404 13.483032,21.389404 C14.088623,19.498535 15.78717,18.126465 17.812439,18.126465 C20.343018,18.126465 22.394287,20.254883 22.394287,22.880615 C24.11731,22.880615 25.885376,22.880615 27.605347,22.880615 C27.605347,20.254883 29.656738,18.126465 32.187378,18.126465 C34.212524,18.126465 35.911133,19.498535 36.516724,21.389404 C36.520386,21.389404 36.52527,21.389404 36.52893,21.389404 C37.448242,24.398438 40.068115,27.872559 40.07776,28.065918 C40.088623,28.284912 42.388184,31.751465 43.689453,31.68164 C44.99048,31.612305 45.25879,29.453613 45.175293,27.782227 ZM37.218628,13.978027 C36.00293,13.978027 35.017456,12.955811 35.017456,11.693848 C35.017456,10.432617 36.00293,9.410156 37.218628,9.410156 C38.434326,9.410156 39.4198,10.432617 39.4198,11.693848 C39.4198,12.955811 38.434326,13.978027 37.218628,13.978027 ZM37.218628,10.925293 C36.809326,10.925293 36.477417,11.269531 36.477417,11.693848 C36.477417,12.118652 36.809326,12.463379 37.218628,12.463379 C37.62793,12.463379 37.95984,12.118652 37.95984,11.693848 C37.95984,11.269531 37.62793,10.925293 37.218628,10.925293 ZM31.468628,16.961182 C30.253052,16.961182 29.267456,15.937988 29.267456,14.677002 C29.267456,13.416016 30.253052,12.393799 31.468628,12.393799 C32.684326,12.393799 33.6698,13.416016 33.6698,14.677002 C33.6698,15.937988 32.684326,16.961182 31.468628,16.961182 ZM31.468628,13.908691 C31.059204,13.908691 30.727417,14.252197 30.727417,14.677002 C30.727417,15.101807 31.059204,15.446533 31.468628,15.446533 C31.87793,15.446533 32.20984,15.101807 32.20984,14.677002 C32.20984,14.252197 31.87793,13.908691 31.468628,13.908691 ZM16.374878,15.422607 C16.374878,15.422607 16.374878,15.422607 16.374878,15.422607 C16.374878,16.246582 15.731323,16.914307 14.937378,16.914307 C14.937378,16.914307 13.499878,16.914307 13.499878,16.914307 C12.705994,16.914307 12.062439,16.246582 12.062439,15.422607 C12.062439,15.422607 12.062439,15.422607 12.062439,15.422607 C12.062439,15.422607 12.062439,15.422607 12.062439,15.422607 C11.268372,15.422607 10.624878,14.754883 10.624878,13.9313965 C10.624878,13.9313965 10.624878,12.439941 10.624878,12.439941 C10.624878,11.615967 11.268372,10.94873 12.062439,10.94873 C12.062439,10.94873 12.062439,10.94873 12.062439,10.94873 C12.062439,10.124512 12.705994,9.456787 13.499878,9.456787 C13.499878,9.456787 14.937378,9.456787 14.937378,9.456787 C15.731323,9.456787 16.374878,10.124512 16.374878,10.94873 C17.168762,10.94873 17.812439,11.615967 17.812439,12.439941 C17.812439,12.439941 17.812439,13.9313965 17.812439,13.9313965 C17.812439,14.754883 17.168762,15.422607 16.374878,15.422607 ZM15.656128,12.439941 C15.656128,12.439941 14.937378,12.439941 14.937378,12.439941 C14.937378,12.439941 14.937378,11.693848 14.937378,11.693848 C14.937378,11.282715 14.6154785,10.94873 14.218567,10.94873 C13.821777,10.94873 13.499878,11.282715 13.499878,11.693848 C13.499878,11.693848 13.499878,12.439941 13.499878,12.439941 C13.499878,12.439941 12.781128,12.439941 12.781128,12.439941 C12.384216,12.439941 12.062439,12.773682 12.062439,13.185547 C12.062439,13.597412 12.384216,13.9313965 12.781128,13.9313965 C12.781128,13.9313965 13.499878,13.9313965 13.499878,13.9313965 C13.499878,13.9313965 13.499878,14.677002 13.499878,14.677002 C13.499878,15.089355 13.821777,15.422607 14.218567,15.422607 C14.6154785,15.422607 14.937378,15.089355 14.937378,14.677002 C14.937378,14.677002 14.937378,13.9313965 14.937378,13.9313965 C14.937378,13.9313965 15.656128,13.9313965 15.656128,13.9313965 C16.0531,13.9313965 16.374878,13.597412 16.374878,13.185547 C16.374878,12.773682 16.0531,12.439941 15.656128,12.439941 Z"/>
</svg>