<svg xmlns="http://www.w3.org/2000/svg"
 xmlns:xlink="http://www.w3.org/1999/xlink"
 width="44px" height="35px"  viewBox="0 0 44 35">
<path fill-rule="evenodd"  fill="transparent"
 d="M40.43744,33.999268 C40.43744,33.999268 4.5625,33.999268 4.5625,33.999268 C3.1472168,33.999268 1.9998779,32.85327 1.9998779,31.438965 C1.9998779,31.438965 1.9998779,4.5598145 1.9998779,4.5598145 C1.9998779,3.1455078 3.1472168,1.9990234 4.5625,1.9990234 C4.5625,1.9990234 40.43744,1.9990234 40.43744,1.9990234 C41.85266,1.9990234 42.999817,3.1455078 42.999817,4.5598145 C42.999817,4.5598145 42.999817,31.438965 42.999817,31.438965 C42.999817,32.85327 41.85266,33.999268 40.43744,33.999268 ZM40.43744,5.838867 C40.43744,5.13208 39.86377,4.5598145 39.156128,4.5598145 C39.156128,4.5598145 5.843628,4.5598145 5.843628,4.5598145 C5.1359863,4.5598145 4.5625,5.13208 4.5625,5.838867 C4.5625,5.838867 4.5625,9.679199 4.5625,9.679199 C4.5625,10.385986 5.1359863,10.9592285 5.843628,10.9592285 C5.843628,10.9592285 39.156128,10.9592285 39.156128,10.9592285 C39.86377,10.9592285 40.43744,10.385986 40.43744,9.679199 C40.43744,9.679199 40.43744,5.838867 40.43744,5.838867 ZM40.43744,13.519043 C40.43744,12.8125 39.86377,12.239502 39.156128,12.239502 C39.156128,12.239502 5.843628,12.239502 5.843628,12.239502 C5.1359863,12.239502 4.5625,12.8125 4.5625,13.519043 C4.5625,13.519043 4.5625,30.158936 4.5625,30.158936 C4.5625,30.866455 5.1359863,31.438965 5.843628,31.438965 C5.843628,31.438965 39.156128,31.438965 39.156128,31.438965 C39.86377,31.438965 40.43744,30.866455 40.43744,30.158936 C40.43744,30.158936 40.43744,13.519043 40.43744,13.519043 ZM37.23419,9.679199 C36.17279,9.679199 35.312378,8.819824 35.312378,7.758789 C35.312378,6.6992188 36.17279,5.838867 37.23419,5.838867 C38.295654,5.838867 39.156128,6.6992188 39.156128,7.758789 C39.156128,8.819824 38.295654,9.679199 37.23419,9.679199 ZM37.23419,7.0788574 C36.8584,7.0788574 36.55359,7.383789 36.55359,7.758789 C36.55359,8.134766 36.8584,8.438721 37.23419,8.438721 C37.61017,8.438721 37.914856,8.134766 37.914856,7.758789 C37.914856,7.383789 37.61017,7.0788574 37.23419,7.0788574 ZM32.109253,9.679199 C31.047852,9.679199 30.187439,8.819824 30.187439,7.758789 C30.187439,6.6992188 31.047852,5.838867 32.109253,5.838867 C33.170715,5.838867 34.031128,6.6992188 34.031128,7.758789 C34.031128,8.819824 33.170715,9.679199 32.109253,9.679199 ZM32.109253,7.0788574 C31.733337,7.0788574 31.42865,7.383789 31.42865,7.758789 C31.42865,8.134766 31.733337,8.438721 32.109253,8.438721 C32.48523,8.438721 32.789917,8.134766 32.789917,7.758789 C32.789917,7.383789 32.48523,7.0788574 32.109253,7.0788574 ZM27.624878,9.679199 C27.624878,9.679199 7.124878,9.679199 7.124878,9.679199 C6.4172974,9.679199 5.843628,9.106201 5.843628,8.399658 C5.843628,8.399658 5.843628,7.1191406 5.843628,7.1191406 C5.843628,6.412842 6.4172974,5.838867 7.124878,5.838867 C7.124878,5.838867 27.624878,5.838867 27.624878,5.838867 C28.33252,5.838867 28.906128,6.412842 28.906128,7.1191406 C28.906128,7.1191406 28.906128,8.399658 28.906128,8.399658 C28.906128,9.106201 28.33252,9.679199 27.624878,9.679199 ZM27.58252,7.5422363 C27.58252,7.302002 27.387695,7.1066895 27.14746,7.1066895 C27.14746,7.1066895 7.602295,7.1066895 7.602295,7.1066895 C7.3619995,7.1066895 7.1671753,7.302002 7.1671753,7.5422363 C7.1671753,7.5422363 7.1671753,7.9768066 7.1671753,7.9768066 C7.1671753,8.216553 7.3619995,8.410889 7.602295,8.410889 C7.602295,8.410889 27.14746,8.410889 27.14746,8.410889 C27.387695,8.410889 27.58252,8.216553 27.58252,7.9768066 C27.58252,7.9768066 27.58252,7.5422363 27.58252,7.5422363 Z"/>
</svg>