<svg xmlns="http://www.w3.org/2000/svg"
 xmlns:xlink="http://www.w3.org/1999/xlink"
 width="33px" height="47px"  viewBox="0 0 33 47">
<path fill-rule="evenodd"  fill="transparent"
 d="M29.257172,25.81372 C27.168243,27.860596 25.73822,30.580566 25.284729,33.629395 C25.284729,33.629395 25.158264,33.629395 25.158264,33.629395 C25.158264,34.19043 24.654541,34.70996 23.798523,35.14209 C23.798523,35.14209 23.798523,41.871094 23.798523,41.871094 C23.798523,43.388428 22.580963,44.619385 21.07904,44.619385 C21.07904,44.619385 19.719177,44.619385 19.719177,44.619385 C19.719177,45.377197 19.110565,45.9917 18.359436,45.9917 C18.359436,45.9917 15.639954,45.9917 15.639954,45.9917 C14.889008,45.9917 14.28009,45.377197 14.28009,44.619385 C14.28009,44.619385 12.920349,44.619385 12.920349,44.619385 C11.418396,44.619385 10.200867,43.388428 10.200867,41.871094 C10.200867,41.871094 10.200867,35.14209 10.200867,35.14209 C9.345032,34.70996 8.841003,34.19043 8.841003,33.629395 C8.841003,33.629395 8.714752,33.629395 8.714752,33.629395 C8.261261,30.580566 6.8311462,27.860596 4.742218,25.81372 C3.026825,23.356201 1.9997253,20.38086 1.9997253,17.143799 C1.9997253,8.776611 8.715393,1.9919434 16.999603,1.9919434 C25.283966,1.9919434 31.999664,8.776611 31.999664,17.143799 C31.999664,20.38086 30.972534,23.356201 29.257172,25.81372 ZM14.28009,41.871094 C14.28009,41.871094 19.719177,41.871094 19.719177,41.871094 C20.470215,41.871094 21.07904,41.255615 21.07904,40.496826 C21.07904,40.496826 21.07904,40.02466 21.07904,40.02466 C21.07904,40.02466 14.26712,41.86914 14.26712,41.86914 C14.271698,41.86914 14.275604,41.871094 14.28009,41.871094 ZM12.920349,40.20215 C12.920349,40.20215 21.07904,37.995117 21.07904,37.995117 C21.07904,37.995117 21.07904,36.590332 21.07904,36.590332 C21.07904,36.590332 12.920349,38.79785 12.920349,38.79785 C12.920349,38.79785 12.920349,40.20215 12.920349,40.20215 ZM12.920349,36.76953 C12.920349,36.76953 19.44757,35.00049 19.44757,35.00049 C19.44757,35.00049 14.28009,35.00049 14.28009,35.00049 C13.529175,35.00049 12.920349,35.61914 12.920349,36.375977 C12.920349,36.375977 12.920349,36.76953 12.920349,36.76953 ZM16.999786,4.9282227 C10.296783,4.9282227 4.8629456,10.415283 4.8629456,17.186768 C4.8629456,20.687012 6.3275146,23.825684 8.655884,26.057373 C8.4296875,25.841064 8.203583,25.621826 7.994446,25.385986 C7.994446,25.385986 7.8663635,25.385986 7.8663635,25.385986 C9.166687,27.007812 10.177002,28.875488 10.793274,30.9292 C11.067657,31.054688 11.352783,31.159668 11.635651,31.269775 C11.693054,31.44629 11.774597,31.611084 11.890198,31.749756 C11.666077,31.907227 11.527313,32.07837 11.527313,32.256348 C11.527313,33.053223 13.977509,33.69995 16.999786,33.69995 C20.021973,33.69995 22.472168,33.053223 22.472168,32.256348 C22.472168,32.07837 22.333313,31.907227 22.109192,31.749756 C22.224884,31.611084 22.306305,31.44629 22.363739,31.269775 C22.646667,31.159668 22.931732,31.054688 23.206116,30.9292 C23.822388,28.875488 24.832703,27.007812 26.133118,25.385986 C26.133118,25.385986 26.005127,25.385986 26.005127,25.385986 C25.795898,25.621826 25.569702,25.841064 25.343475,26.057373 C27.671967,23.825684 29.136444,20.687012 29.136444,17.186768 C29.136444,10.415283 23.702698,4.9282227 16.999786,4.9282227 ZM23.821594,17.143799 C23.814758,13.342285 20.768707,10.260986 17.005615,10.246338 C17.005615,10.246338 17.005615,8.749023 17.005615,8.749023 C21.58554,8.766846 25.293701,12.517334 25.300568,17.143799 C25.300568,17.143799 23.821594,17.143799 23.821594,17.143799 Z"/>
</svg>