<svg xmlns="http://www.w3.org/2000/svg"
 xmlns:xlink="http://www.w3.org/1999/xlink"
 width="44px" height="46px"  viewBox="0 0 44 46">
<path fill-rule="evenodd"  fill="transparent"
 d="M40.2666,27.544434 C40.2666,27.544434 40.2666,42.313477 40.2666,42.313477 C40.2666,43.796875 39.042847,44.99951 37.533203,44.99951 C37.533203,44.99951 7.4664917,44.99951 7.4664917,44.99951 C5.9570312,44.99951 4.7331543,43.796875 4.7331543,42.313477 C4.7331543,42.313477 4.7331543,27.544434 4.7331543,27.544434 C3.2236938,27.544434 1.9998169,26.341797 1.9998169,24.858887 C1.9998169,24.858887 1.9998169,18.144531 1.9998169,18.144531 C1.9998169,16.661865 3.2236938,15.459473 4.7331543,15.459473 C4.7331543,15.459473 17.612549,15.459473 17.612549,15.459473 C15.117126,15.288086 12.746521,14.462402 10.733398,13.10498 C10.769043,13.093506 10.80072,13.075684 10.836182,13.063721 C9.109741,12.1015625 7.772156,10.47998 7.289978,8.430176 C7.182556,7.9748535 7.1381226,7.52124 7.12146,7.0705566 C7.097595,6.8115234 7.0983887,6.557373 7.119995,6.304199 C7.1206055,6.2956543 7.121216,6.286621 7.1220093,6.277588 C7.1397705,6.0839844 7.1641846,5.893799 7.2070923,5.7060547 C7.2856445,5.213135 7.397217,4.72876 7.5740356,4.267578 C7.855774,3.973877 8.170166,3.7106934 8.500916,3.4648438 C9.068481,2.9328613 9.771301,2.526123 10.59082,2.340332 C10.688477,2.3183594 10.784912,2.31958 10.882324,2.3041992 C11.008545,2.2678223 11.127136,2.2185059 11.256653,2.1896973 C13.913025,1.5861816 16.543274,2.503418 18.275146,4.3344727 C18.2771,4.321533 18.28186,4.3095703 18.283936,4.2958984 C20.104858,6.048828 21.463257,8.307129 22.0802,10.928467 C22.119751,11.09668 22.125977,11.263672 22.158936,11.4313965 C22.158936,11.4313965 22.840942,11.4313965 22.840942,11.4313965 C22.87378,11.263672 22.880005,11.09668 22.919556,10.928467 C23.536499,8.307129 24.894897,6.048828 26.71582,4.2958984 C26.717896,4.3095703 26.722534,4.321533 26.72461,4.3344727 C28.45642,2.503418 31.08667,1.5861816 33.743042,2.1896973 C33.87268,2.2185059 33.991333,2.2678223 34.11743,2.3041992 C34.214966,2.31958 34.3114,2.3183594 34.408936,2.340332 C35.228516,2.526123 35.931274,2.9328613 36.4989,3.4648438 C36.82959,3.7106934 37.144043,3.973877 37.42566,4.267578 C37.60254,4.72876 37.71411,5.213135 37.792603,5.7060547 C37.83557,5.893799 37.859985,6.0839844 37.877686,6.277588 C37.87854,6.286621 37.879272,6.2956543 37.87976,6.304199 C37.901367,6.557373 37.90222,6.8115234 37.878296,7.0705566 C37.861694,7.52124 37.81714,7.9748535 37.70984,8.430176 C37.22754,10.47998 35.890015,12.1015625 34.163574,13.063721 C34.198975,13.075684 34.230713,13.093506 34.266357,13.10498 C32.253174,14.462402 29.882568,15.288086 27.387207,15.459473 C27.387207,15.459473 40.2666,15.459473 40.2666,15.459473 C41.776,15.459473 42.999878,16.661865 42.999878,18.144531 C42.999878,18.144531 42.999878,24.858887 42.999878,24.858887 C42.999878,26.341797 41.776,27.544434 40.2666,27.544434 ZM25.233276,42.313477 C25.233276,42.313477 36.166626,42.313477 36.166626,42.313477 C36.921265,42.313477 37.533203,41.712646 37.533203,40.971436 C37.533203,40.971436 37.533203,27.544434 37.533203,27.544434 C37.533203,26.802979 36.921265,26.201416 36.166626,26.201416 C36.166626,26.201416 25.233276,26.201416 25.233276,26.201416 C25.233276,26.201416 25.233276,42.313477 25.233276,42.313477 ZM18.737915,10.178467 C18.258423,8.739258 17.377563,7.459717 16.260132,6.4296875 C16.259521,6.437256 16.257568,6.4433594 16.256897,6.4504395 C15.185974,5.3828125 13.652222,4.7629395 12.179077,4.959961 C12.107239,4.9694824 12.042664,4.990967 11.972961,5.003418 C11.918579,5.0078125 11.863953,5.0021973 11.8098755,5.009033 C11.355347,5.0703125 10.977905,5.2546387 10.683289,5.513916 C10.508301,5.6296387 10.343506,5.756592 10.198669,5.9003906 C10.121582,6.1401367 10.082581,6.395752 10.062683,6.6569824 C10.047668,6.7558594 10.043335,6.8569336 10.042847,6.960205 C10.042908,6.965332 10.042908,6.970459 10.04303,6.9750977 C10.043396,7.109131 10.055542,7.246582 10.081909,7.3864746 C10.11377,7.6293945 10.161438,7.8759766 10.244934,8.126221 C10.619629,9.250977 11.457153,10.1875 12.481873,10.787598 C12.462402,10.792236 12.4453125,10.800537 12.425659,10.80542 C14.274963,12.071045 16.536194,12.723877 18.717163,12.431641 C18.855469,12.413574 18.985962,12.383057 19.119995,12.356689 C19.108032,11.653564 18.985352,10.921631 18.737915,10.178467 ZM19.766602,15.436768 C19.649292,15.447266 19.532349,15.452881 19.415405,15.459473 C19.415405,15.459473 19.766602,15.459473 19.766602,15.459473 C19.766602,15.459473 19.766602,15.436768 19.766602,15.436768 ZM19.766602,18.144531 C19.766602,18.144531 6.0998535,18.144531 6.0998535,18.144531 C5.345093,18.144531 4.7331543,18.746094 4.7331543,19.487793 C4.7331543,19.487793 4.7331543,23.51587 4.7331543,23.51587 C4.7331543,24.257324 5.345093,24.858887 6.0998535,24.858887 C6.0998535,24.858887 19.766602,24.858887 19.766602,24.858887 C19.766602,24.858887 19.766602,18.144531 19.766602,18.144531 ZM19.766602,26.201416 C19.766602,26.201416 8.833191,26.201416 8.833191,26.201416 C8.07843,26.201416 7.4664917,26.802979 7.4664917,27.544434 C7.4664917,27.544434 7.4664917,40.971436 7.4664917,40.971436 C7.4664917,41.712646 8.07843,42.313477 8.833191,42.313477 C8.833191,42.313477 19.766602,42.313477 19.766602,42.313477 C19.766602,42.313477 19.766602,26.201416 19.766602,26.201416 ZM21.133179,15.459473 C21.133179,15.459473 21.133179,43.656494 21.133179,43.656494 C21.133179,43.656494 23.866577,43.656494 23.866577,43.656494 C23.866577,43.656494 23.866577,15.459473 23.866577,15.459473 C23.866577,15.459473 21.133179,15.459473 21.133179,15.459473 ZM32.574097,10.80542 C32.554443,10.800537 32.537476,10.792236 32.517944,10.787598 C33.542603,10.1875 34.380127,9.250977 34.754883,8.126221 C34.838257,7.8759766 34.885986,7.6293945 34.917847,7.3864746 C34.944214,7.246582 34.9563,7.109131 34.956665,6.9750977 C34.956787,6.970459 34.95691,6.965332 34.95691,6.960205 C34.95642,6.8569336 34.95215,6.7558594 34.93701,6.6569824 C34.917236,6.395752 34.878174,6.1401367 34.801025,5.9003906 C34.65625,5.756592 34.491455,5.6296387 34.31653,5.513916 C34.02185,5.2546387 33.64441,5.0703125 33.18982,5.009033 C33.135864,5.0021973 33.081177,5.0078125 33.026733,5.003418 C32.957153,4.990967 32.89258,4.9694824 32.8208,4.959961 C31.347534,4.7629395 29.81372,5.3828125 28.742798,6.4504395 C28.742188,6.4433594 28.740234,6.437256 28.739746,6.4296875 C27.622314,7.459717 26.741333,8.739258 26.261963,10.178467 C26.014526,10.921631 25.891724,11.653564 25.87976,12.356689 C26.013672,12.383057 26.14441,12.413574 26.282715,12.431641 C28.463623,12.723877 30.724731,12.071045 32.574097,10.80542 ZM25.233276,15.436768 C25.233276,15.436768 25.233276,15.459473 25.233276,15.459473 C25.233276,15.459473 25.58435,15.459473 25.58435,15.459473 C25.467285,15.452881 25.350586,15.447266 25.233276,15.436768 ZM40.2666,19.487793 C40.2666,18.746094 39.654663,18.144531 38.899902,18.144531 C38.899902,18.144531 25.233276,18.144531 25.233276,18.144531 C25.233276,18.144531 25.233276,24.858887 25.233276,24.858887 C25.233276,24.858887 38.899902,24.858887 38.899902,24.858887 C39.654663,24.858887 40.2666,24.257324 40.2666,23.51587 C40.2666,23.51587 40.2666,19.487793 40.2666,19.487793 Z"/>
</svg>