<svg xmlns="http://www.w3.org/2000/svg"
 xmlns:xlink="http://www.w3.org/1999/xlink"
 width="36px" height="36px"  viewBox="0 0 36 36">
<path fill-rule="evenodd"  fill="transparent"
 d="M33.510315,32.09497 C33.510315,32.09497 32.09601,33.509033 32.09601,33.509033 C31.314972,34.29077 30.048767,34.29077 29.267609,33.509033 C29.267609,33.509033 23.878601,28.120117 23.878601,28.120117 C23.878601,28.120117 19.999908,31.999268 19.999908,31.999268 C19.249939,32.74951 17.999847,32.103516 17.999847,30.999268 C17.999847,30.999268 17.999847,19.999268 17.999847,19.999268 C17.999847,18.894775 18.895355,17.999023 19.999908,17.999023 C19.999908,17.999023 30.999786,17.999023 30.999786,17.999023 C32.10443,17.999023 32.749878,19.249268 31.999786,19.999268 C31.999786,19.999268 28.121216,23.878174 28.121216,23.878174 C28.121216,23.878174 33.510315,29.26709 33.510315,29.26709 C34.29138,30.047852 34.29138,31.314209 33.510315,32.09497 ZM31.596008,30.180908 C31.596008,30.180908 25.20697,23.791748 25.20697,23.791748 C25.20697,23.791748 27.999908,20.999023 27.999908,20.999023 C28.499908,20.499023 28.052246,19.999268 27.499878,19.999268 C27.499878,19.999268 20.999817,19.999268 20.999817,19.999268 C20.44757,19.999268 19.999908,20.447021 19.999908,20.999023 C19.999908,20.999023 19.999908,27.499023 19.999908,27.499023 C19.999908,28.05127 20.44757,28.55127 20.999817,27.99878 C20.999817,27.99878 23.792755,25.206543 23.792755,25.206543 C23.792755,25.206543 30.181824,31.595459 30.181824,31.595459 C30.572449,31.986328 31.205566,31.986328 31.596008,31.595459 C31.986633,31.20459 31.986633,30.571777 31.596008,30.180908 ZM15.999908,17.999023 C15.999908,17.999023 4.999939,17.999023 4.999939,17.999023 C3.8952942,17.999023 3.249939,16.749268 3.9999084,15.999756 C3.9999084,15.999756 7.8785095,12.120605 7.8785095,12.120605 C7.8785095,12.120605 2.48938,6.7316895 2.48938,6.7316895 C1.7083435,5.9501953 1.7083435,4.683838 2.48938,3.9030762 C2.48938,3.9030762 3.9036865,2.4885254 3.9036865,2.4885254 C4.684662,1.7077637 5.95105,1.7077637 6.7321167,2.4885254 C6.7321167,2.4885254 12.121216,7.878174 12.121216,7.878174 C12.121216,7.878174 15.999908,3.9992676 15.999908,3.9992676 C16.749878,3.2490234 17.999847,3.8945312 17.999847,4.9992676 C17.999847,4.9992676 17.999847,15.999756 17.999847,15.999756 C17.999847,17.104004 17.104462,17.999023 15.999908,17.999023 ZM15.999908,8.499023 C15.999908,7.94751 15.552155,7.4472656 14.999878,7.9992676 C14.999878,7.9992676 12.20697,10.791748 12.20697,10.791748 C12.20697,10.791748 5.8179016,4.403076 5.8179016,4.403076 C5.4272766,4.0126953 4.7942505,4.0126953 4.403717,4.403076 C4.0131836,4.793457 4.0131836,5.427002 4.403717,5.8171387 C4.403717,5.8171387 10.792755,12.206299 10.792755,12.206299 C10.792755,12.206299 7.999817,14.999023 7.999817,14.999023 C7.499817,15.499023 7.947571,15.999756 8.499817,15.999756 C8.499817,15.999756 14.999878,15.999756 14.999878,15.999756 C15.552155,15.999756 15.999908,15.55127 15.999908,14.999023 C15.999908,14.999023 15.999908,8.499023 15.999908,8.499023 Z"/>
</svg>