<?xml version="1.0" encoding="utf-8"?>
<!-- Generator: Adobe Illustrator 22.0.1, SVG Export Plug-In . SVG Version: 6.00 Build 0)  -->
<svg version="1.1" id="Logo" xmlns="http://www.w3.org/2000/svg" xmlns:xlink="http://www.w3.org/1999/xlink" x="0px" y="0px"
	 viewBox="0 0 137 28" style="enable-background:new 0 0 137 28;" xml:space="preserve">
<style type="text/css">
	.st0{enable-background:new    ;}
	.st1{fill:#FEFEFE;}
	.st2{fill:#65E496;}
	.st3{fill:#44444F;}
</style>
<g class="st0">
	<path class="st1" d="M50.2,3.1c2.1,0,3.7,0.4,4.9,1.3c1.2,0.9,1.8,2.2,1.8,4c0,0.9-0.3,1.7-0.8,2.4s-1.3,1.2-2.2,1.6
		c1.2,0.3,2.1,0.8,2.8,1.8c0.7,0.9,1,2,1,3.2c0,1.8-0.6,3.2-1.8,4.2c-1.2,1-2.8,1.4-4.8,1.4h-9.6v-1.7l2.2-0.4V5.2l-2.2-0.4V3.1h2.2
		H50.2z M46.4,11.6h4.5c1,0,1.7-0.3,2.3-0.9c0.6-0.5,0.9-1.3,0.9-2.3c0-1.1-0.3-1.9-1-2.4c-0.7-0.5-1.6-0.8-2.9-0.8h-3.8V11.6z
		 M46.4,13.7v7.2H51c1.2,0,2.2-0.3,2.9-0.9c0.7-0.6,1-1.5,1-2.6c0-1.2-0.3-2.1-0.9-2.7c-0.6-0.7-1.4-1-2.6-1H46.4z"/>
	<path class="st1" d="M66.8,3.1v1.7l-2.2,0.4v11.4c0,1.5,0.4,2.6,1.3,3.4c0.9,0.8,2,1.2,3.4,1.2c1.5,0,2.7-0.4,3.6-1.2
		s1.4-1.9,1.4-3.4V5.2L72,4.8V3.1h4.9h2.2v1.7l-2.2,0.4v11.4c0,2.2-0.7,3.8-2.1,5s-3.2,1.7-5.5,1.7c-2.2,0-4-0.6-5.3-1.7
		c-1.4-1.2-2-2.8-2-5V5.2l-2.2-0.4V3.1h2.2H66.8z"/>
	<path class="st1" d="M80.9,21.3l2.2-0.4V5.2l-2.2-0.4V3.1h7.2v1.7l-2.2,0.4v6.7h2.1L93.5,5L92,4.8V3.1h6.3v1.7l-1.9,0.3l-6.1,7.5
		l6.6,8.2l1.9,0.3V23h-6.5v-1.7l1.5-0.2L88.2,14h-2.3v6.9l2.2,0.4V23h-7.2V21.3z"/>
</g>
<g class="st0">
	<path class="st2" d="M100.8,23v-1.7l2.2-0.4V5.2l-2.2-0.4V3.1h15.3v4.8h-2.3l-0.2-2.7h-7.8v6.4h7.6v2.1h-7.6v7.1h8l0.2-2.7h2.3V23
		H100.8z"/>
	<path class="st2" d="M118.6,23v-1.7l2.2-0.4V5.2l-2.2-0.4V3.1h15.3v4.8h-2.3l-0.2-2.7h-7.8v6.4h7.6v2.1h-7.6v7.1h8l0.2-2.7h2.3V23
		H118.6z"/>
</g>
<g id="logo_icon">
	<path id="Rectangle_10_copy_3" class="st2" d="M28,28L0,0h28V28z"/>
	<path class="st3" d="M28,0L0,28V0H28z"/>
</g>
</svg>
